HIERARCHY
ROOT Root
{
  OFFSET 0.0 0.0 0.0
  CHANNELS 6 Xposition Yposition Zposition Zrotation Yrotation Xrotation
  JOINT Hips
  {
    OFFSET 0.0 100.0 0.0
    CHANNELS 6 Xposition Yposition Zposition Zrotation Yrotation Xrotation
    JOINT Spine1
    {
      OFFSET 5.003913 -0.037094 -0.013727
      CHANNELS 3 Zrotation Yrotation Xrotation
      JOINT Spine2
      {
        OFFSET 7.125363 -1e-06 0.0
        CHANNELS 3 Zrotation Yrotation Xrotation
        JOINT Chest
        {
          OFFSET 7.594027 1e-06 0.0
          CHANNELS 3 Zrotation Yrotation Xrotation
          JOINT Neck1
          {
            OFFSET 26.313086 -0.460272 -0.181672
            CHANNELS 3 Zrotation Yrotation Xrotation
            JOINT Neck2
            {
              OFFSET 8.045911 0.0 0.0
              CHANNELS 3 Zrotation Yrotation Xrotation
              JOINT Head
              {
                OFFSET 6.432774 0.0 0.0
                CHANNELS 3 Zrotation Yrotation Xrotation
                JOINT HeadEnd
                {
                  OFFSET 16.169773 0.06451 0.00362
                  CHANNELS 3 Zrotation Yrotation Xrotation
                }
                JOINT Jaw
                {
                  OFFSET 0.108741 3.12938 0.002639
                  CHANNELS 3 Zrotation Yrotation Xrotation
                }
                JOINT LeftEye
                {
                  OFFSET 4.45173 8.166359 3.206392
                  CHANNELS 3 Zrotation Yrotation Xrotation
                }
                JOINT RightEye
                {
                  OFFSET 4.436895 8.135758 -3.222429
                  CHANNELS 3 Zrotation Yrotation Xrotation
                }
              }
            }
          }
          JOINT LeftShoulder
          {
            OFFSET 23.218927 5.195579 1.621656
            CHANNELS 3 Zrotation Yrotation Xrotation
            JOINT LeftArm
            {
              OFFSET 15.902118 2e-06 -2e-06
              CHANNELS 3 Zrotation Yrotation Xrotation
              JOINT LeftForeArm
              {
                OFFSET 28.739307 0.0 -1e-06
                CHANNELS 3 Zrotation Yrotation Xrotation
                JOINT LeftHand
                {
                  OFFSET 27.093981 -4e-06 0.0
                  CHANNELS 3 Zrotation Yrotation Xrotation
                  JOINT LeftHandThumb1
                  {
                    OFFSET 2.276781 3.380274 0.83384
                    CHANNELS 3 Zrotation Yrotation Xrotation
                    JOINT LeftHandThumb2
                    {
                      OFFSET 4.705309 -1e-06 -1e-06
                      CHANNELS 3 Zrotation Yrotation Xrotation
                      JOINT LeftHandThumb3
                      {
                        OFFSET 2.798515 0.0 3e-06
                        CHANNELS 3 Zrotation Yrotation Xrotation
                        JOINT LeftHandThumbEnd
                        {
                          OFFSET 3.180793 4e-06 -4e-06
                          CHANNELS 3 Zrotation Yrotation Xrotation
                        }
                      }
                    }
                  }
                  JOINT LeftHandIndex1
                  {
                    OFFSET 3.247786 2.352677 0.137192
                    CHANNELS 3 Zrotation Yrotation Xrotation
                    JOINT LeftHandIndex2
                    {
                      OFFSET 6.367095 1e-06 0.0
                      CHANNELS 3 Zrotation Yrotation Xrotation
                      JOINT LeftHandIndex3
                      {
                        OFFSET 3.662364 0.0 0.0
                        CHANNELS 3 Zrotation Yrotation Xrotation
                        JOINT LeftHandIndex4
                        {
                          OFFSET 2.329242 4e-06 -4e-06
                          CHANNELS 3 Zrotation Yrotation Xrotation
                          JOINT LeftHandIndexEnd
                          {
                            OFFSET 2.767823 1e-06 0.0
                            CHANNELS 3 Zrotation Yrotation Xrotation
                          }
                        }
                      }
                    }
                  }
                  JOINT LeftHandMiddle1
                  {
                    OFFSET 3.163612 0.945023 -0.406112
                    CHANNELS 3 Zrotation Yrotation Xrotation
                    JOINT LeftHandMiddle2
                    {
                      OFFSET 6.276789 3e-06 0.0
                      CHANNELS 3 Zrotation Yrotation Xrotation
                      JOINT LeftHandMiddle3
                      {
                        OFFSET 4.35652 -1e-06 4e-06
                        CHANNELS 3 Zrotation Yrotation Xrotation
                        JOINT LeftHandMiddle4
                        {
                          OFFSET 2.996877 0.0 8e-06
                          CHANNELS 3 Zrotation Yrotation Xrotation
                          JOINT LeftHandMiddleEnd
                          {
                            OFFSET 2.323256 3e-06 -4e-06
                            CHANNELS 3 Zrotation Yrotation Xrotation
                          }
                        }
                      }
                    }
                  }
                  JOINT LeftHandRing1
                  {
                    OFFSET 2.882606 -0.309162 0.107445
                    CHANNELS 3 Zrotation Yrotation Xrotation
                    JOINT LeftHandRing2
                    {
                      OFFSET 6.033198 0.0 4e-06
                      CHANNELS 3 Zrotation Yrotation Xrotation
                      JOINT LeftHandRing3
                      {
                        OFFSET 4.350578 3e-06 0.0
                        CHANNELS 3 Zrotation Yrotation Xrotation
                        JOINT LeftHandRing4
                        {
                          OFFSET 2.651321 2e-06 -7e-06
                          CHANNELS 3 Zrotation Yrotation Xrotation
                          JOINT LeftHandRingEnd
                          {
                            OFFSET 1.937663 1e-06 -4e-06
                            CHANNELS 3 Zrotation Yrotation Xrotation
                          }
                        }
                      }
                    }
                  }
                  JOINT LeftHandPinky1
                  {
                    OFFSET 2.865315 -1.525436 0.575687
                    CHANNELS 3 Zrotation Yrotation Xrotation
                    JOINT LeftHandPinky2
                    {
                      OFFSET 5.54936 1e-06 -8e-06
                      CHANNELS 3 Zrotation Yrotation Xrotation
                      JOINT LeftHandPinky3
                      {
                        OFFSET 3.070974 0.0 -4e-06
                        CHANNELS 3 Zrotation Yrotation Xrotation
                        JOINT LeftHandPinky4
                        {
                          OFFSET 1.549672 1e-06 0.0
                          CHANNELS 3 Zrotation Yrotation Xrotation
                          JOINT LeftHandPinkyEnd
                          {
                            OFFSET 1.952123 0.0 0.0
                            CHANNELS 3 Zrotation Yrotation Xrotation
                          }
                        }
                      }
                    }
                  }
                }
              }
            }
          }
          JOINT RightShoulder
          {
            OFFSET 23.161716 5.296122 -1.380114
            CHANNELS 3 Zrotation Yrotation Xrotation
            JOINT RightArm
            {
              OFFSET -16.027195 -2e-06 1.1e-05
              CHANNELS 3 Zrotation Yrotation Xrotation
              JOINT RightForeArm
              {
                OFFSET -28.736639 4e-06 2e-06
                CHANNELS 3 Zrotation Yrotation Xrotation
                JOINT RightHand
                {
                  OFFSET -27.133619 6e-06 0.0
                  CHANNELS 3 Zrotation Yrotation Xrotation
                  JOINT RightHandThumb1
                  {
                    OFFSET -2.274328 -3.351035 -0.83067
                    CHANNELS 3 Zrotation Yrotation Xrotation
                    JOINT RightHandThumb2
                    {
                      OFFSET -4.703594 -3e-06 2e-06
                      CHANNELS 3 Zrotation Yrotation Xrotation
                      JOINT RightHandThumb3
                      {
                        OFFSET -2.794935 -4e-06 -3e-06
                        CHANNELS 3 Zrotation Yrotation Xrotation
                        JOINT RightHandThumbEnd
                        {
                          OFFSET -3.183852 4e-06 1e-06
                          CHANNELS 3 Zrotation Yrotation Xrotation
                        }
                      }
                    }
                  }
                  JOINT RightHandIndex1
                  {
                    OFFSET -3.253496 -2.33755 -0.127667
                    CHANNELS 3 Zrotation Yrotation Xrotation
                    JOINT RightHandIndex2
                    {
                      OFFSET -6.344434 0.0 0.0
                      CHANNELS 3 Zrotation Yrotation Xrotation
                      JOINT RightHandIndex3
                      {
                        OFFSET -3.654871 0.0 -8e-06
                        CHANNELS 3 Zrotation Yrotation Xrotation
                        JOINT RightHandIndex4
                        {
                          OFFSET -2.327586 -1e-06 0.0
                          CHANNELS 3 Zrotation Yrotation Xrotation
                          JOINT RightHandIndexEnd
                          {
                            OFFSET -2.770001 3e-06 8e-06
                            CHANNELS 3 Zrotation Yrotation Xrotation
                          }
                        }
                      }
                    }
                  }
                  JOINT RightHandMiddle1
                  {
                    OFFSET -3.168223 -0.944764 0.411762
                    CHANNELS 3 Zrotation Yrotation Xrotation
                    JOINT RightHandMiddle2
                    {
                      OFFSET -6.266691 -1e-06 -4e-06
                      CHANNELS 3 Zrotation Yrotation Xrotation
                      JOINT RightHandMiddle3
                      {
                        OFFSET -4.348901 0.0 0.0
                        CHANNELS 3 Zrotation Yrotation Xrotation
                        JOINT RightHandMiddle4
                        {
                          OFFSET -3.00024 2e-06 -4e-06
                          CHANNELS 3 Zrotation Yrotation Xrotation
                          JOINT RightHandMiddleEnd
                          {
                            OFFSET -2.321477 -4e-06 -4e-06
                            CHANNELS 3 Zrotation Yrotation Xrotation
                          }
                        }
                      }
                    }
                  }
                  JOINT RightHandRing1
                  {
                    OFFSET -2.885654 0.293261 -0.119232
                    CHANNELS 3 Zrotation Yrotation Xrotation
                    JOINT RightHandRing2
                    {
                      OFFSET -6.032835 -1e-06 -4e-06
                      CHANNELS 3 Zrotation Yrotation Xrotation
                      JOINT RightHandRing3
                      {
                        OFFSET -4.33881 0.0 -4e-06
                        CHANNELS 3 Zrotation Yrotation Xrotation
                        JOINT RightHandRing4
                        {
                          OFFSET -2.654903 -4e-06 -4e-06
                          CHANNELS 3 Zrotation Yrotation Xrotation
                          JOINT RightHandRingEnd
                          {
                            OFFSET -1.935122 0.0 4e-06
                            CHANNELS 3 Zrotation Yrotation Xrotation
                          }
                        }
                      }
                    }
                  }
                  JOINT RightHandPinky1
                  {
                    OFFSET -2.866241 1.503904 -0.60527
                    CHANNELS 3 Zrotation Yrotation Xrotation
                    JOINT RightHandPinky2
                    {
                      OFFSET -5.553177 -2e-06 0.0
                      CHANNELS 3 Zrotation Yrotation Xrotation
                      JOINT RightHandPinky3
                      {
                        OFFSET -3.062664 -1e-06 -4e-06
                        CHANNELS 3 Zrotation Yrotation Xrotation
                        JOINT RightHandPinky4
                        {
                          OFFSET -1.546529 2e-06 4e-06
                          CHANNELS 3 Zrotation Yrotation Xrotation
                          JOINT RightHandPinkyEnd
                          {
                            OFFSET -1.952341 0.0 -4e-06
                            CHANNELS 3 Zrotation Yrotation Xrotation
                          }
                        }
                      }
                    }
                  }
                }
              }
            }
          }
        }
      }
    }
    JOINT LeftLeg
    {
      OFFSET -8.443107 2.567604 10.043214
      CHANNELS 3 Zrotation Yrotation Xrotation
      JOINT LeftShin
      {
        OFFSET 43.229198 1e-06 -1e-06
        CHANNELS 3 Zrotation Yrotation Xrotation
        JOINT LeftFoot
        {
          OFFSET 42.298611 1e-06 1e-06
          CHANNELS 3 Zrotation Yrotation Xrotation
          JOINT LeftToeBase
          {
            OFFSET 14.165858 1e-06 0.0
            CHANNELS 3 Zrotation Yrotation Xrotation
            JOINT LeftToeEnd
            {
              OFFSET 6.7141 -0.234461 0.0
              CHANNELS 3 Zrotation Yrotation Xrotation
            }
          }
        }
      }
    }
    JOINT RightLeg
    {
      OFFSET -8.303923 2.592729 -10.047278
      CHANNELS 3 Zrotation Yrotation Xrotation
      JOINT RightShin
      {
        OFFSET -43.369682 0.0 1e-06
        CHANNELS 3 Zrotation Yrotation Xrotation
        JOINT RightFoot
        {
          OFFSET -42.260784 4e-06 2e-06
          CHANNELS 3 Zrotation Yrotation Xrotation
          JOINT RightToeBase
          {
            OFFSET -14.222245 -2e-06 -1e-06
            CHANNELS 3 Zrotation Yrotation Xrotation
            JOINT RightToeEnd
            {
              OFFSET -6.660062 0.232574 -2e-06
              CHANNELS 3 Zrotation Yrotation Xrotation
            }
          }
        }
      }
    }
  }
}
MOTION
Frames: 5
Frame Time: 0.03333333333333333
0.0 0.0 0.0 0.0 -0.0 0.0 1.939335 100.361122 1.658799 89.007263 0.98365 90.203682 2.627892 1.375865 0.205287 -9.987619 -0.109792 0.917345 14.55772 -0.278207 -1.13973 25.152588 3.525426 2.718657 -2.686001 -0.824042 -0.562118 -39.108006 1.127509 -2.383043 5e-06 0.0 0.0 0.002485 0.009381 0.016525 -0.038242 -0.022448 -0.003808 -0.056106 0.042163 0.05143 -121.314819 -66.784119 142.971405 17.101759 -56.706192 -0.656662 37.271568 0.771376 0.421145 -2.463939 -5.662078 27.378336 17.636625 -26.322729 52.41119 -19.466661 -14.395597 29.410389 -0.0 -8.774821 -3e-06 16.504093 -17.799393 5.842854 -0.609776 -1.795653 -3.889328 -4.807087 -11.046809 -2.937851 5e-06 -20.976015 1e-06 -5.019967 -25.033548 -4.031878 5e-06 0.0 0.0 -10.634531 -5.686968 -3.565587 10.573272 -17.922949 -3.113901 4e-06 -13.821206 1e-06 -0.501776 -31.181498 -4.027011 -11.215756 -60.206909 6.844051 -13.982711 -7.150197 -2.875042 13.772727 -8.401491 -3.218244 0.347734 -34.211544 0.771653 -0.963026 -17.733366 2.621018 -1e-06 -2e-06 -1e-06 -17.346415 -20.095215 -4.201784 21.757557 -1.638376 3.866424 2e-06 -6.338822 1e-06 -1.697585 -22.591745 -6.194006 0.0 -2e-06 -3e-06 57.897152 -76.81385 141.26944 21.745754 -66.457161 -4.419295 26.10465 0.542051 0.238783 1.369633 -0.030121 15.27422 22.182117 -20.3759 49.933319 -16.701818 -16.743528 28.476536 -4e-06 -12.690601 -1e-06 16.031839 -17.648602 2.561533 -0.10592 -1.513856 -4.27588 -5.03904 -5.612872 -2.953556 5e-06 -11.020526 -1e-06 -6.111296 -15.895336 -3.840472 0.0 -2e-06 -0.0 -10.28337 -5.680288 -4.341838 11.028296 -11.302408 -2.372633 -1.384268 -14.238584 -6.320121 -0.625439 -26.924196 -3.8276 -4.081316 -49.486103 -4.200918 -13.708525 -7.363475 -3.72094 18.141151 -14.052743 -3.242676 6e-06 -18.78727 -2e-06 -0.42971 -8.456045 2.555503 -1e-06 2e-06 -1e-06 -15.923532 -20.094482 -5.473586 30.41921 -7.190827 1.735925 3e-06 -8.162929 -0.0 -1.861902 -22.861469 -6.167942 0.0 -2e-06 -2e-06 -177.633057 -5.237232 4.056141 10.321219 -0.024134 0.070592 -79.628494 1.848204 -4.148583 -5.392395 1.409518 2.139715 -0.999999 0.0 -0.0 4.16574 0.994508 -4.073919 7.824708 -0.068439 -0.067214 -78.046425 -8.392517 -4.374077 -4.839668 0.736512 1.695649 -1.000002 -0.0 -0.0 
0.0 0.0 0.0 0.0 -0.0 0.0 1.921102 100.291 1.890763 88.93882 1.188784 90.276962 2.487971 1.450247 0.209702 -10.019086 -0.069633 0.961254 14.543107 -0.306786 -1.205084 25.345154 3.48907 2.747087 -2.652831 -0.770104 -0.771986 -38.621563 0.927164 -2.381667 6e-06 -0.0 0.0 0.00451 0.005998 0.028353 -0.009618 -0.022882 0.012159 -0.022849 0.035631 0.056124 -122.412727 -66.153252 144.310608 16.328606 -57.5639 0.871227 33.825607 0.765193 0.323041 -2.426599 -5.29346 29.53462 17.636625 -26.322729 52.411182 -19.466661 -14.395596 29.410393 -1e-06 -8.77482 -3e-06 16.595434 -17.705576 5.730493 -0.609776 -1.795653 -3.889327 -4.807086 -11.046809 -2.937849 6e-06 -20.976019 2e-06 -5.019968 -25.033552 -4.031878 5e-06 -1e-06 -0.0 -10.634531 -5.686968 -3.565586 10.573271 -17.922947 -3.113897 6e-06 -13.821209 -1e-06 -0.501775 -31.181501 -4.027012 -10.970373 -59.993561 6.749033 -13.982711 -7.150195 -2.875041 13.772727 -8.401492 -3.218241 0.347738 -34.211552 0.771652 -0.963027 -17.73337 2.621019 -0.0 1e-06 -0.0 -17.346413 -20.095211 -4.201779 21.757555 -1.638377 3.866424 3e-06 -6.338823 0.0 -1.697587 -22.591743 -6.194003 -0.0 -4e-06 -2e-06 56.983219 -76.214035 142.281311 20.58625 -66.797562 -2.924515 24.396315 0.482616 0.291013 0.833285 -0.710361 15.544411 22.182106 -20.375891 49.933319 -16.701813 -16.743528 28.47653 -3e-06 -12.690598 -1e-06 15.961403 -17.65452 2.513308 -0.105919 -1.513857 -4.275881 -5.03904 -5.612871 -2.953556 4e-06 -11.020524 -4e-06 -6.111296 -15.895334 -3.840471 0.0 1e-06 0.0 -10.283368 -5.680288 -4.341837 11.028293 -11.302404 -2.372635 -1.384268 -14.238579 -6.320122 -0.625436 -26.924187 -3.827601 -4.089329 -49.483208 -4.276694 -13.708522 -7.363476 -3.720938 18.14115 -14.052739 -3.242676 7e-06 -18.78727 -4e-06 -0.429711 -8.456043 2.555503 -0.0 -1e-06 1e-06 -15.923531 -20.094482 -5.473587 30.419207 -7.190827 1.735925 3e-06 -8.162929 -1e-06 -1.861901 -22.861467 -6.167942 -0.0 -2e-06 -1e-06 -177.312424 -5.312232 4.16392 10.410943 -0.029134 0.091494 -80.00071 1.741539 -4.227804 -5.367669 1.469208 2.152434 -0.999999 0.0 -0.0 4.84312 1.090856 -4.038037 7.175188 -0.06181 -0.094568 -78.092278 -8.431221 -4.42683 -4.861895 0.703956 1.688483 -1.000002 0.0 -0.0 
0.0 0.0 0.0 0.0 -0.0 0.0 1.889315 100.237503 2.08859 88.898544 1.350571 90.355148 2.290195 1.473168 0.194369 -10.083799 -0.035234 0.96736 14.554886 -0.34309 -1.236702 25.651056 3.493858 2.774665 -2.654748 -0.756098 -0.924236 -37.917248 0.740318 -2.429563 6e-06 -0.0 0.0 0.008355 0.007212 0.03635 0.011806 -0.025217 0.025059 0.004518 0.040226 0.056059 -123.127098 -65.513985 145.275925 15.438251 -58.298706 2.77953 31.340015 0.783406 0.239464 -2.637209 -5.380425 31.267206 17.636635 -26.322723 52.411179 -19.466663 -14.395596 29.410385 1e-06 -8.774822 -2e-06 16.674776 -17.665199 5.6488 -0.609777 -1.795655 -3.889326 -4.807091 -11.046814 -2.937851 1e-06 -20.976021 0.0 -5.019975 -25.033564 -4.031885 6e-06 3e-06 -1e-06 -10.634537 -5.686974 -3.565587 10.573275 -17.922953 -3.113899 3e-06 -13.821214 -4e-06 -0.50178 -31.181507 -4.027017 -10.859578 -59.792793 6.660639 -13.982718 -7.150201 -2.875041 13.772731 -8.401491 -3.218242 0.347732 -34.211559 0.771652 -0.96303 -17.733372 2.621019 1e-06 -0.0 -1e-06 -17.346426 -20.095224 -4.201778 21.757565 -1.638373 3.866429 1e-06 -6.338825 -3e-06 -1.697591 -22.591751 -6.194008 0.0 -3e-06 -2e-06 56.12207 -75.705238 143.243774 19.662939 -67.087242 -2.039545 23.086935 0.46908 0.300089 0.327748 -1.334525 15.744639 22.182117 -20.375896 49.933319 -16.701817 -16.74353 28.476534 -3e-06 -12.690601 -2e-06 15.949718 -17.697296 2.514395 -0.105919 -1.513856 -4.275881 -5.039042 -5.612872 -2.953557 4e-06 -11.020525 -3e-06 -6.111298 -15.895332 -3.840471 0.0 -0.0 1e-06 -10.283371 -5.680288 -4.341839 11.028294 -11.302405 -2.372632 -1.384269 -14.238581 -6.320122 -0.625441 -26.924194 -3.827601 -4.057482 -49.502884 -4.384955 -13.708526 -7.363477 -3.720938 18.141148 -14.052739 -3.242672 6e-06 -18.78727 -3e-06 -0.429712 -8.456045 2.555502 0.0 0.0 0.0 -15.923538 -20.094484 -5.473584 30.419218 -7.190823 1.735926 3e-06 -8.16293 1e-06 -1.861904 -22.861471 -6.167942 -0.0 -2e-06 -2e-06 -177.039124 -5.364483 4.36695 10.455296 -0.03501 0.088273 -80.267166 1.621493 -4.274122 -5.359768 1.514131 2.164993 -0.999999 0.0 0.0 5.378063 1.160093 -4.118897 6.712859 -0.050179 -0.102493 -78.144287 -8.414709 -4.47673 -4.839212 0.694007 1.686815 -1.000001 -1e-06 0.0 
0.0 0.0 0.0 0.0 -0.0 0.0 1.80281 100.204918 2.226583 88.849579 1.460818 90.399643 2.082803 1.475601 0.176307 -10.158766 -0.001161 0.98875 14.549973 -0.353913 -1.245047 26.044983 3.46749 2.801204 -2.670457 -0.755825 -0.997889 -37.305779 0.601571 -2.523394 6e-06 -0.0 0.0 0.011364 0.010814 0.042746 0.018946 -0.024488 0.036739 0.017567 0.04653 0.054843 -123.306763 -64.972282 145.646896 14.612731 -58.90638 4.816026 29.94582 0.809909 0.185551 -2.889771 -5.965997 32.560047 17.636627 -26.322733 52.41119 -19.466661 -14.395597 29.410389 -0.0 -8.774823 -1e-06 16.664728 -17.634033 5.624152 -0.609776 -1.795654 -3.889327 -4.807088 -11.046811 -2.937849 4e-06 -20.976019 1e-06 -5.019971 -25.033556 -4.03188 4e-06 -1e-06 -0.0 -10.634535 -5.686972 -3.565589 10.573272 -17.922951 -3.113898 4e-06 -13.821212 -3e-06 -0.501777 -31.181505 -4.027013 -10.858835 -59.660919 6.661199 -13.982714 -7.150198 -2.875039 13.77273 -8.401493 -3.218242 0.347736 -34.211555 0.771652 -0.963031 -17.73337 2.621021 1e-06 -1e-06 -1e-06 -17.346418 -20.095219 -4.201783 21.757561 -1.638375 3.866428 2e-06 -6.338824 -1e-06 -1.697591 -22.591747 -6.194007 0.0 -6e-06 -1e-06 55.647461 -75.369987 143.738556 19.047459 -67.359879 -1.645952 22.255241 0.50109 0.283598 -0.083583 -1.835786 15.850106 22.182119 -20.375895 49.933323 -16.701813 -16.743528 28.476532 -3e-06 -12.690602 -1e-06 15.962673 -17.729959 2.548415 -0.10592 -1.513856 -4.275882 -5.039041 -5.61287 -2.953556 4e-06 -11.020523 -2e-06 -6.111298 -15.895332 -3.840472 0.0 -1e-06 1e-06 -10.283372 -5.680288 -4.341839 11.028296 -11.302406 -2.372633 -1.384268 -14.238583 -6.320122 -0.62544 -26.924194 -3.827601 -3.988842 -49.50787 -4.468564 -13.708526 -7.363476 -3.72094 18.141151 -14.05274 -3.242673 7e-06 -18.787271 -2e-06 -0.429711 -8.456042 2.555502 0.0 -1e-06 0.0 -15.923536 -20.094482 -5.473586 30.419218 -7.190827 1.735927 3e-06 -8.162929 -1e-06 -1.861902 -22.861469 -6.167942 1e-06 -4e-06 -1e-06 -176.83139 -5.465869 4.554832 10.452232 -0.033679 0.07356 -80.423462 1.542792 -4.314617 -5.349475 1.52082 2.169147 -1.0 0.0 0.0 5.74356 1.254238 -4.217815 6.417402 -0.042621 -0.107608 -78.15638 -8.3494 -4.513647 -4.81341 0.684071 1.68496 -1.000002 -0.0 -0.0 
0.0 0.0 0.0 0.0 -0.0 0.0 1.669942 100.179222 2.329535 88.783722 1.556368 90.422882 1.897673 1.485914 0.179238 -10.227971 0.024614 1.0242 14.511453 -0.356298 -1.217779 26.49704 3.422005 2.799516 -2.687156 -0.754816 -1.051224 -36.814976 0.527751 -2.626117 6e-06 -0.0 0.0 0.018645 0.012283 0.044597 0.020836 -0.023958 0.041817 0.026091 0.048774 0.0525 -123.136566 -64.61689 145.552856 13.91041 -59.360943 6.434755 29.4305 0.796569 0.16705 -3.086576 -6.530215 33.338638 17.636625 -26.322725 52.411182 -19.466656 -14.395594 29.410385 -2e-06 -8.77482 -1e-06 16.583654 -17.598749 5.654924 -0.609776 -1.795653 -3.889327 -4.807086 -11.046806 -2.937851 4e-06 -20.976011 1e-06 -5.019967 -25.033552 -4.031879 5e-06 -1e-06 -2e-06 -10.634532 -5.686968 -3.565584 10.57327 -17.922945 -3.113897 4e-06 -13.821209 -1e-06 -0.501776 -31.181505 -4.027014 -10.902574 -59.603783 6.720089 -13.982711 -7.150195 -2.875041 13.772725 -8.401489 -3.21824 0.347737 -34.21154 0.771655 -0.963027 -17.733366 2.621019 -1e-06 -0.0 -0.0 -17.346415 -20.095207 -4.201779 21.757555 -1.638377 3.866425 2e-06 -6.338822 -1e-06 -1.697588 -22.591742 -6.194003 -1e-06 -5e-06 -2e-06 55.622871 -75.207237 143.695663 18.912682 -67.572678 -1.706255 21.68755 0.517423 0.271422 -0.368944 -2.084187 15.967195 22.182112 -20.375895 49.933319 -16.701813 -16.74353 28.47653 -3e-06 -12.690598 -1e-06 15.959615 -17.716957 2.585623 -0.105919 -1.513856 -4.27588 -5.03904 -5.61287 -2.953556 4e-06 -11.02052 -2e-06 -6.111298 -15.89533 -3.840469 -0.0 -0.0 1e-06 -10.283368 -5.680288 -4.341838 11.028292 -11.302404 -2.372632 -1.384267 -14.238581 -6.32012 -0.62544 -26.924185 -3.827601 -3.927392 -49.483551 -4.509046 -13.708523 -7.363476 -3.720938 18.141148 -14.052739 -3.242674 6e-06 -18.787268 -2e-06 -0.429712 -8.456045 2.555504 0.0 -1e-06 0.0 -15.923534 -20.094482 -5.473584 30.41921 -7.190823 1.735924 2e-06 -8.162927 -1e-06 -1.861903 -22.861469 -6.167942 -1e-06 -2e-06 -1e-06 -176.665268 -5.613256 4.72906 10.46137 -0.033023 0.066 -80.545921 1.438988 -4.377965 -5.33123 1.519815 2.16786 -0.999999 0.0 0.0 6.021817 1.392565 -4.332313 6.215266 -0.039494 -0.10181 -78.157104 -8.278503 -4.509887 -4.757526 0.669885 1.682353 -1.000002 -0.0 -0.0 
